<svg width="160" height="32" viewBox="0 0 160 32" xmlns="http://www.w3.org/2000/svg">
  <!-- Background rounded rectangle -->
  <rect x="4" y="4" width="152" height="24" rx="6" ry="6" fill="white" stroke="#e5e7eb" stroke-width="1"/>

  <!-- K -->
  <g fill="black">
    <rect x="16" y="9" width="2" height="14"/>
    <polygon points="18,9 24,14 22.5,15.5 18,12"/>
    <polygon points="18,20 22.5,16.5 24,18 18,23"/>
  </g>

  <!-- I -->
  <g fill="black">
    <rect x="32" y="9" width="2" height="14"/>
    <circle cx="33" cy="7" r="1" fill="#f59e0b"/>
  </g>

  <!-- G -->
  <g fill="black">
    <path d="M42 16 C42 12.7 44.7 10 48 10 C51.3 10 54 12.7 54 16 C54 19.3 51.3 22 48 22 C44.7 22 42 19.3 42 16 Z M44 16 C44 18.2 45.8 20 48 20 C50.2 20 52 18.2 52 16 C52 13.8 50.2 12 48 12 C45.8 12 44 13.8 44 16 Z"/>
    <rect x="48" y="15" width="6" height="2"/>
    <rect x="52" y="17" width="2" height="3"/>
  </g>

  <!-- O -->
  <g fill="black">
    <path d="M62 16 C62 12.7 64.7 10 68 10 C71.3 10 74 12.7 74 16 C74 19.3 71.3 22 68 22 C64.7 22 62 19.3 62 16 Z M64 16 C64 18.2 65.8 20 68 20 C70.2 20 72 18.2 72 16 C72 13.8 70.2 12 68 12 C65.8 12 64 13.8 64 16 Z"/>
  </g>
</svg>
