<svg width="160" height="32" viewBox="0 0 160 32" xmlns="http://www.w3.org/2000/svg">
  <!-- K -->
  <g fill="white">
    <rect x="16" y="12" width="2" height="14"/>
    <polygon points="18,12 24,17 22.5,18.5 18,15"/>
    <polygon points="18,23 22.5,19.5 24,21 18,26"/>
  </g>

  <!-- I -->
  <g fill="white">
    <rect x="32" y="12" width="2" height="14"/>
    <circle cx="33" cy="9" r="1" fill="#f59e0b"/>
  </g>

  <!-- G -->
  <g fill="white">
    <path d="M42 19 C42 15.7 44.7 13 48 13 C51.3 13 54 15.7 54 19 C54 22.3 51.3 25 48 25 C44.7 25 42 22.3 42 19 Z M44 19 C44 21.2 45.8 23 48 23 C50.2 23 52 21.2 52 19 C52 16.8 50.2 15 48 15 C45.8 15 44 16.8 44 19 Z"/>
    <rect x="48" y="18" width="6" height="2"/>
    <rect x="52" y="20" width="2" height="3"/>
  </g>

  <!-- O -->
  <g fill="white">
    <path d="M62 19 C62 15.7 64.7 13 68 13 C71.3 13 74 15.7 74 19 C74 22.3 71.3 25 68 25 C64.7 25 62 22.3 62 19 Z M64 19 C64 21.2 65.8 23 68 23 C70.2 23 72 21.2 72 19 C72 16.8 70.2 15 68 15 C65.8 15 64 16.8 64 19 Z"/>
  </g>
</svg>
